<svg xmlns="http://www.w3.org/2000/svg" width="159.94" height="24.494" viewBox="0 0 1895.026 290.219">
  <defs>
    <style>
      .cls-1 {
        fill-rule: evenodd;
      }
    </style>
  </defs>
  <path id="better_plants" data-name="better plants" class="cls-1" d="M611.908,761.938q-11.481,13.746-31.71,13.741a125.566,125.566,0,0,1-14.949-.755,99.552,99.552,0,0,1-10.117-1.661v-90.9a56,56,0,0,1,29.9-8.758q19.932,0,29.143,13.59t9.211,36.844Q623.384,748.2,611.908,761.938Zm44.243-70.97a77.4,77.4,0,0,0-13.439-26.123,58.289,58.289,0,0,0-21.895-16.761Q607.68,642.2,591.07,642.2a71.844,71.844,0,0,0-20.385,2.718,86.662,86.662,0,0,0-15.553,6.04V569.111l-36.542,6.04v223.48a215.726,215.726,0,0,0,27.331,6.04,212.076,212.076,0,0,0,34.579,2.718q18.721,0,33.522-5.738a68.892,68.892,0,0,0,25.217-16.61,74.044,74.044,0,0,0,16.006-26.123q5.584-15.246,5.587-34.277A114.476,114.476,0,0,0,656.151,690.968ZM702.2,758.012A70.486,70.486,0,0,0,717,783.984,67.4,67.4,0,0,0,742.37,801.2q15.4,6.186,36.24,6.191a139.585,139.585,0,0,0,16.006-.906q7.85-.906,14.647-2.265a117,117,0,0,0,12.08-3.02,57.889,57.889,0,0,0,8.305-3.171l-4.832-29.9a100.014,100.014,0,0,1-17.365,5.134,113.508,113.508,0,0,1-24.311,2.416q-22.65,0-34.579-10.419t-13.439-29.445h104.19q0.3-3.015.453-6.8t0.151-6.795q0-40.161-18.271-60.4t-50.887-20.234a73,73,0,0,0-27.18,5.285,68.09,68.09,0,0,0-23.556,15.7A76.7,76.7,0,0,0,703.563,688.7q-6.193,15.707-6.191,36.542A105.983,105.983,0,0,0,702.2,758.012Zm33.22-49.075a63.649,63.649,0,0,1,3.322-13.59,37.97,37.97,0,0,1,6.8-11.778,33.716,33.716,0,0,1,10.721-8.3,32.688,32.688,0,0,1,14.8-3.171,31.8,31.8,0,0,1,14.043,2.869,29.32,29.32,0,0,1,9.966,7.852,34.632,34.632,0,0,1,6.191,11.778,48.139,48.139,0,0,1,2.114,14.345h-67.95Zm148.886,31.71a129.451,129.451,0,0,0,2.718,27.935,52.045,52.045,0,0,0,9.362,20.838,41.621,41.621,0,0,0,17.969,13.137q11.325,4.53,28.237,4.53a90.437,90.437,0,0,0,24.16-2.869,136.968,136.968,0,0,0,16.61-5.587l-6.04-28.992a118.534,118.534,0,0,1-12.231,3.926,66.862,66.862,0,0,1-17.667,2.114q-14.5,0-20.536-8.154t-6.04-27.18V676.019h56.172v-30.5H920.852V597.8l-36.542,6.04V740.647Zm133.79,0a129.608,129.608,0,0,0,2.71,27.935,52.041,52.041,0,0,0,9.37,20.838,41.556,41.556,0,0,0,17.96,13.137q11.325,4.53,28.24,4.53a90.442,90.442,0,0,0,24.16-2.869,137.209,137.209,0,0,0,16.61-5.587l-6.04-28.992a118.827,118.827,0,0,1-12.23,3.926,66.833,66.833,0,0,1-17.67,2.114q-14.49,0-20.53-8.154t-6.04-27.18V676.019h56.17v-30.5h-56.17V597.8l-36.54,6.04V740.647Zm128.95,17.365a70.574,70.574,0,0,0,14.8,25.972,67.36,67.36,0,0,0,25.37,17.214q15.4,6.186,36.24,6.191a139.454,139.454,0,0,0,16-.906q7.86-.906,14.65-2.265a116.671,116.671,0,0,0,12.08-3.02,58.224,58.224,0,0,0,8.31-3.171l-4.84-29.9a99.641,99.641,0,0,1-17.36,5.134,113.465,113.465,0,0,1-24.31,2.416q-22.65,0-34.58-10.419t-13.44-29.445h104.19q0.3-3.015.45-6.8t0.15-6.795q0-40.161-18.27-60.4t-50.88-20.234a72.945,72.945,0,0,0-27.18,5.285,68.106,68.106,0,0,0-23.56,15.7,76.745,76.745,0,0,0-16.46,26.123q-6.2,15.707-6.19,36.542A106.073,106.073,0,0,0,1147.05,758.012Zm33.22-49.075a64.247,64.247,0,0,1,3.32-13.59,38.022,38.022,0,0,1,6.8-11.778,33.734,33.734,0,0,1,10.72-8.3,32.7,32.7,0,0,1,14.8-3.171,31.784,31.784,0,0,1,14.04,2.869,29.315,29.315,0,0,1,9.97,7.852,34.578,34.578,0,0,1,6.19,11.778,48.009,48.009,0,0,1,2.11,14.345h-67.95Zm247.04-61.306q-2.715-.906-7.25-1.963t-9.36-1.812c-3.22-.5-6.45-0.906-9.67-1.208s-6.04-.453-8.45-0.453a164.887,164.887,0,0,0-35.18,3.473,201.9,201.9,0,0,0-26.43,7.4v150.4h36.54V676.925a77.567,77.567,0,0,1,9.52-2.114,73.71,73.71,0,0,1,12.83-1.208,92.331,92.331,0,0,1,18.57,1.661,117.2,117.2,0,0,1,12.54,3.171Zm206.41,114.156q-9.21,13.59-29.14,13.59a50.063,50.063,0,0,1-17.06-2.869,56.305,56.305,0,0,1-12.84-6.191v-90.3a58.986,58.986,0,0,1,11.02-1.963q5.6-.453,10.72-0.453,24.465,0,35.49,13.59t11.02,38.052Q1642.93,748.2,1633.72,761.787Zm41.07-71.423a72.531,72.531,0,0,0-16-25.972,70.011,70.011,0,0,0-25.22-16.459q-14.8-5.733-33.52-5.738a209.334,209.334,0,0,0-34.43,2.718q-16.3,2.718-27.48,5.738V859.333h36.54V798.027a76.629,76.629,0,0,0,15.4,6.04,73.469,73.469,0,0,0,20.54,2.718q16.605,0,29.75-6.04a59.719,59.719,0,0,0,21.89-16.912,77.4,77.4,0,0,0,13.44-25.972,111.8,111.8,0,0,0,4.68-33.22Q1680.38,705.615,1674.79,690.364Zm110.99,85.919a57.641,57.641,0,0,1-11.93-2.567,16.87,16.87,0,0,1-7.4-4.832,17.937,17.937,0,0,1-3.78-7.7,50.4,50.4,0,0,1-1.05-11.174v-180.9l-36.55,6.04v181.8a78.359,78.359,0,0,0,2.57,20.989,33.64,33.64,0,0,0,8.91,15.4q6.345,6.194,17.06,9.513t27.03,3.624Zm70.66-3.473q-8.145-4.983-8.15-17.969a18.937,18.937,0,0,1,3.02-11.023,20.3,20.3,0,0,1,8-6.795,38.159,38.159,0,0,1,11.18-3.322,84.261,84.261,0,0,1,12.23-.906,81.644,81.644,0,0,1,12.68.906,71.63,71.63,0,0,1,8.76,1.812v40.468q-8.76,1.812-25.67,1.812Q1864.6,777.793,1856.44,772.81Zm-9.36-128.8a144.412,144.412,0,0,0-20.23,4.832l4.53,29.6a102.03,102.03,0,0,1,17.21-4.228,138.1,138.1,0,0,1,23.26-1.812q9.345,0,15.55,2.416a24.18,24.18,0,0,1,15.25,16.912,47.592,47.592,0,0,1,1.51,12.08v6.04a119.155,119.155,0,0,0-14.19-2.567,113.476,113.476,0,0,0-12.69-.755,118.281,118.281,0,0,0-24.91,2.567,62.078,62.078,0,0,0-20.99,8.456,43.386,43.386,0,0,0-14.35,15.251q-5.28,9.365-5.28,22.952,0,14.2,4.68,23.858a41.237,41.237,0,0,0,12.98,15.7,54.617,54.617,0,0,0,20.09,8.758,115.5,115.5,0,0,0,25.97,2.718,260.993,260.993,0,0,0,38.5-2.567q17.07-2.562,25.52-4.379V704.105a96.588,96.588,0,0,0-3.17-25.519,47.522,47.522,0,0,0-10.57-19.781q-7.395-8.154-19.78-12.684t-30.5-4.53A158.835,158.835,0,0,0,1847.08,644.007Zm144.66,159.456h36.54V676.019q3.63-.6,11.17-1.51a121.8,121.8,0,0,1,14.5-.906,43.381,43.381,0,0,1,15.86,2.567,21.759,21.759,0,0,1,10.26,8.154,38.3,38.3,0,0,1,5.44,14.5,120.627,120.627,0,0,1,1.66,21.593v83.05h36.54V714.675a127.882,127.882,0,0,0-3.17-29.445,56.533,56.533,0,0,0-10.87-22.952q-7.7-9.513-20.69-14.8t-32.31-5.285a236.855,236.855,0,0,0-37.45,2.718,244.93,244.93,0,0,0-27.48,5.738V803.463Zm182.4-62.816a129.57,129.57,0,0,0,2.72,27.935,52.029,52.029,0,0,0,9.36,20.838,41.648,41.648,0,0,0,17.97,13.137q11.325,4.53,28.24,4.53a90.442,90.442,0,0,0,24.16-2.869,137.209,137.209,0,0,0,16.61-5.587l-6.04-28.992a118.827,118.827,0,0,1-12.23,3.926,66.833,66.833,0,0,1-17.67,2.114q-14.49,0-20.53-8.154t-6.04-27.18V676.019h56.17v-30.5h-56.17V597.8l-36.55,6.04V740.647Zm149.34,33.522a163.726,163.726,0,0,1-19.48-6.342l-6.34,30.5a172.06,172.06,0,0,0,17.82,5.587q12.69,3.468,33.52,3.473,31.11,0,47.87-11.627t16.76-34.277a53.719,53.719,0,0,0-2.72-18.12,36.111,36.111,0,0,0-8.61-13.439,59.606,59.606,0,0,0-14.94-10.57,203.839,203.839,0,0,0-22.05-9.513,134.794,134.794,0,0,1-13.29-5.285,48.005,48.005,0,0,1-8.76-5.134,15,15,0,0,1-4.68-5.587,16.849,16.849,0,0,1-1.36-6.946,12.4,12.4,0,0,1,6.95-11.627q6.945-3.772,18.12-3.775a93.073,93.073,0,0,1,21.74,2.265,89.789,89.789,0,0,1,15.41,4.983l6.64-29.6a129.773,129.773,0,0,0-19.03-4.983,133.879,133.879,0,0,0-26.57-2.567q-27.495,0-43.49,12.533T2300.98,688.4q0,11.177,3.48,18.875a38.9,38.9,0,0,0,9.51,13.137,62.324,62.324,0,0,0,14.34,9.513,184.836,184.836,0,0,0,18.28,7.7q16.3,6.045,23.4,11.174t7.1,12.986q0,8.458-6.65,11.929t-21.14,3.473A100.409,100.409,0,0,1,2323.48,774.169Z" transform="translate(-518.594 -569.125)"/>
</svg>
